<svg class="logo__svg" viewBox="0 0 193 27" fill="none" xmlns="http://www.w3.org/2000/svg">
<path class="logo__path" d="M24.5 0L0 26H49L24.5 0ZM16.6442 16.6702L13.3075 13.1309L16.6442 9.58115L19.981 13.1309L16.6442 16.6702ZM19.981 21.466L16.6442 25.0052L13.3075 21.466L16.6442 17.9162L19.981 21.466ZM35.745 21.466L32.4083 25.0052L29.019 21.466L32.4083 17.9162L35.745 21.466ZM28.3885 5.49738C28.4207 5.46941 28.4473 5.43762 28.4673 5.40314L31.7909 8.96335L28.4542 12.4921L28.3097 12.356L25.2357 9.08901C25.2357 9.06069 25.2252 9.03476 25.2148 9.0092C25.1945 8.95917 25.1748 8.91055 25.2357 8.84817C26.2997 7.73822 27.3507 6.6178 28.3885 5.49738ZM8.91984 24.8691L8.78847 25.0052L5.45174 21.466L8.78847 17.9162L9.23512 18.3874C9.54108 18.7114 9.84558 19.0366 10.1501 19.3618C10.7608 20.014 11.3714 20.6661 11.9938 21.3089C12.0428 21.3498 12.0702 21.4042 12.0702 21.4607C12.0702 21.5173 12.0428 21.5717 11.9938 21.6126L8.91984 24.8691ZM20.5721 12.4921L17.2354 8.95288L20.6115 5.42408L20.7429 5.56021L23.8169 8.80628C23.8169 8.83383 23.8283 8.85911 23.8398 8.88473C23.8633 8.93703 23.8874 8.99075 23.8169 9.06806L20.6772 12.3979L20.5721 12.4921ZM20.5721 20.8691L17.2354 17.3298L20.5721 13.7906L20.9399 14.1675C21.8689 15.1687 22.8108 16.1594 23.7528 17.1502L23.7643 17.1623C23.7926 17.1829 23.8152 17.208 23.8307 17.2359C23.8461 17.2639 23.8541 17.2941 23.8541 17.3246C23.8541 17.3551 23.8461 17.3853 23.8307 17.4133C23.8152 17.4412 23.7926 17.4663 23.7643 17.4869C22.9114 18.4316 22.0585 19.3243 21.2134 20.2088C21.0563 20.3732 20.8994 20.5374 20.7429 20.7016L20.5721 20.8691ZM36.3362 20.8691L32.9995 17.3298L36.3362 13.7906L39.6729 17.3298L36.3362 20.8691ZM28.4673 13.8534V13.7801L31.8566 17.3508L28.5198 20.8901C28.4147 20.7853 28.3228 20.6911 28.244 20.5969L25.3013 17.4555C25.2357 17.3717 25.1962 17.3089 25.3013 17.2147L28.4673 13.8534ZM12.7952 20.7644C12.7675 20.7892 12.7453 20.8175 12.7295 20.8482L9.37962 17.2984L12.7032 13.7696C12.7583 13.8061 12.8069 13.8484 12.8477 13.8953L15.9611 17.1623C15.9611 17.1906 15.9716 17.2154 15.982 17.2397C16.0023 17.2875 16.022 17.3338 15.9611 17.4031L12.7952 20.7644ZM35.6925 13.1204L32.3558 16.6597L29.019 13.1309L32.3558 9.59162L35.6925 13.1204ZM27.8105 4.74346L24.4737 8.28272L21.2552 4.87958C21.2354 4.8545 21.2249 4.82546 21.2249 4.79581C21.2249 4.76616 21.2354 4.73712 21.2552 4.71204L24.4606 1.27749H24.5263L27.8105 4.74346ZM27.8105 13.1204L24.4737 16.6597L21.1633 13.1309L24.5 9.58115L27.8105 13.1204ZM27.8105 21.4974L24.4737 25.0366L21.1633 21.466L24.4737 17.9476L27.8105 21.4974ZM43.5745 21.4974L40.2378 25.0366L39.5941 24.4398L36.9668 21.6021C36.9668 21.5784 36.9558 21.5569 36.9445 21.5347C36.9208 21.4884 36.8957 21.4392 36.9668 21.3613L40.1853 17.9791H40.2509L43.5745 21.4974ZM7.88204 25.2356H1.89169L4.91314 22.0942L7.88204 25.2356ZM44.1394 22.0942L47.1083 25.2356H41.1705L44.1394 22.0942ZM20.5721 22.0942L23.5542 25.2356H17.5901L20.5721 22.0942ZM39.2525 25.2356H33.3147L36.2836 22.0942L39.2525 25.2356ZM28.4279 22.0942L31.3968 25.2356H25.459L28.4279 22.0942ZM12.6638 22.0942L15.6327 25.2356H9.69491L12.6638 22.0942ZM105.483 8.02399C104.326 7.50132 103.019 7.23999 101.563 7.23999C100.033 7.23999 98.6699 7.51999 97.4752 8.07999C96.2805 8.63999 95.2632 9.37732 94.4232 10.292C93.6019 11.2067 92.9765 12.252 92.5472 13.428C92.1179 14.5853 91.9032 15.7613 91.9032 16.956C91.9032 18.1693 92.1179 19.336 92.5472 20.456C92.9765 21.576 93.5832 22.5653 94.3672 23.424C95.1699 24.2827 96.1405 24.9733 97.2792 25.496C98.4365 26.0187 99.7339 26.28 101.171 26.28C102.515 26.28 103.775 26.0467 104.951 25.58C106.146 25.0947 107.191 24.432 108.087 23.592C108.983 22.752 109.683 21.744 110.187 20.568C110.71 19.392 110.971 18.104 110.971 16.704C110.971 15.4533 110.747 14.2587 110.299 13.12C109.87 11.9627 109.245 10.9547 108.423 10.096C107.621 9.21866 106.641 8.52799 105.483 8.02399ZM104.811 24.46C103.878 24.964 102.786 25.244 101.535 25.3C100.415 25.3 99.3792 25.0387 98.4272 24.516C97.4939 23.9933 96.6819 23.312 95.9912 22.472C95.3005 21.632 94.7592 20.6987 94.3672 19.672C93.9752 18.6267 93.7792 17.5907 93.7792 16.564C93.7792 15.612 93.9472 14.6413 94.2832 13.652C94.6192 12.6627 95.1045 11.7667 95.7392 10.964C96.3925 10.1613 97.1765 9.50799 98.0912 9.00399C99.0059 8.48132 100.042 8.21999 101.199 8.21999C102.394 8.21999 103.467 8.49066 104.419 9.03199C105.39 9.55466 106.221 10.2453 106.911 11.104C107.602 11.944 108.134 12.8867 108.507 13.932C108.881 14.9773 109.067 16.0133 109.067 17.04C109.067 17.9733 108.909 18.916 108.591 19.868C108.293 20.82 107.826 21.6973 107.191 22.5C106.557 23.284 105.763 23.9373 104.811 24.46ZM75.4 25.72H75.26V26H86.74V22.472H86.46C86.46 22.7147 86.4133 22.9853 86.32 23.284C86.2453 23.564 86.1147 23.8347 85.928 24.096C85.76 24.3387 85.5453 24.544 85.284 24.712C85.0227 24.88 84.7147 24.964 84.36 24.964H78.228V9.25599C78.228 9.12532 78.2467 8.97599 78.284 8.80799C78.34 8.63999 78.4053 8.48132 78.48 8.33199C78.5547 8.18266 78.648 8.06132 78.76 7.96799C78.872 7.85599 79.0027 7.79999 79.152 7.79999H79.292V7.51999H75.26V7.79999H75.4C75.5493 7.79999 75.68 7.85599 75.792 7.96799C75.904 8.06132 75.9973 8.18266 76.072 8.33199C76.1653 8.48132 76.2307 8.63999 76.268 8.80799C76.324 8.97599 76.352 9.12532 76.352 9.25599V24.236C76.352 24.3853 76.324 24.544 76.268 24.712C76.2307 24.88 76.1653 25.0387 76.072 25.188C75.9973 25.3373 75.904 25.468 75.792 25.58C75.68 25.6733 75.5493 25.72 75.4 25.72ZM118.428 7.51999H122.404V7.79999H122.264C122.115 7.79999 121.984 7.85599 121.872 7.96799C121.76 8.06132 121.657 8.18266 121.564 8.33199C121.489 8.48132 121.433 8.63999 121.396 8.80799C121.359 8.97599 121.34 9.12532 121.34 9.25599V20.316C121.34 21.044 121.415 21.716 121.564 22.332C121.713 22.948 121.965 23.48 122.32 23.928C122.675 24.376 123.141 24.7307 123.72 24.992C124.299 25.2347 125.008 25.356 125.848 25.356C126.781 25.356 127.528 25.2067 128.088 24.908C128.648 24.6093 129.077 24.2267 129.376 23.76C129.675 23.2747 129.871 22.7333 129.964 22.136C130.057 21.5387 130.104 20.9507 130.104 20.372V9.25599C130.104 9.12532 130.085 8.97599 130.048 8.80799C130.011 8.63999 129.945 8.48132 129.852 8.33199C129.777 8.18266 129.684 8.06132 129.572 7.96799C129.46 7.85599 129.339 7.79999 129.208 7.79999H129.068V7.51999H132.12V7.79999H131.98C131.831 7.79999 131.7 7.85599 131.588 7.96799C131.495 8.06132 131.401 8.18266 131.308 8.33199C131.233 8.48132 131.177 8.63999 131.14 8.80799C131.103 8.97599 131.084 9.12532 131.084 9.25599V20.288C131.084 21.5013 130.935 22.5 130.636 23.284C130.337 24.0493 129.927 24.656 129.404 25.104C128.881 25.552 128.265 25.86 127.556 26.028C126.865 26.196 126.128 26.28 125.344 26.28C124.504 26.28 123.72 26.1867 122.992 26C122.283 25.832 121.667 25.524 121.144 25.076C120.621 24.628 120.211 24.0213 119.912 23.256C119.613 22.472 119.464 21.492 119.464 20.316V9.25599C119.464 9.12532 119.445 8.97599 119.408 8.80799C119.371 8.63999 119.305 8.48132 119.212 8.33199C119.137 8.18266 119.044 8.06132 118.932 7.96799C118.82 7.85599 118.699 7.79999 118.568 7.79999H118.428V7.51999ZM142.16 8.91999C142.104 8.75199 142.076 8.61199 142.076 8.49999C142.076 8.27599 142.15 8.10799 142.3 7.99599C142.468 7.86532 142.636 7.79999 142.804 7.79999V7.51999H138.828V7.79999C139.145 7.81866 139.406 7.93066 139.612 8.13599C139.836 8.34132 140.004 8.58399 140.116 8.86399L146.668 26.336L153.08 8.77999C153.21 8.42532 153.388 8.17332 153.612 8.02399C153.854 7.87466 154.116 7.79999 154.396 7.79999V7.51999H151.344V7.79999C151.493 7.79999 151.652 7.85599 151.82 7.96799C152.006 8.06132 152.1 8.21999 152.1 8.44399C152.1 8.48132 152.09 8.53732 152.072 8.61199C152.053 8.68666 152.034 8.74266 152.016 8.77999L147.088 22.192L142.16 8.91999ZM165.076 25.72H165.216V26H161.268V25.72H161.408C161.538 25.72 161.66 25.664 161.772 25.552C161.884 25.44 161.977 25.3093 162.052 25.16C162.145 25.0107 162.21 24.852 162.248 24.684C162.285 24.4973 162.304 24.3293 162.304 24.18V9.25599C162.304 9.12532 162.285 8.97599 162.248 8.80799C162.21 8.63999 162.145 8.48132 162.052 8.33199C161.977 8.18266 161.884 8.06132 161.772 7.96799C161.66 7.85599 161.538 7.79999 161.408 7.79999H161.268V7.51999H166.14C168.006 7.51999 169.444 7.88399 170.452 8.61199C171.478 9.33999 171.992 10.4133 171.992 11.832C171.992 12.5413 171.87 13.1667 171.628 13.708C171.404 14.2307 171.096 14.688 170.704 15.08C170.312 15.4533 169.845 15.7613 169.304 16.004C168.781 16.228 168.221 16.396 167.624 16.508L169.64 19.588C170.125 20.3347 170.62 21.072 171.124 21.8C171.628 22.5093 172.122 23.2467 172.608 24.012C172.738 24.1987 172.878 24.3947 173.028 24.6C173.196 24.8053 173.364 24.992 173.532 25.16C173.718 25.328 173.905 25.468 174.092 25.58C174.297 25.6733 174.502 25.72 174.708 25.72V26H173.504C172.757 26 172.141 25.8227 171.656 25.468C171.189 25.0947 170.797 24.6653 170.48 24.18C169.64 22.948 168.8 21.6973 167.96 20.428C167.138 19.1587 166.317 17.908 165.496 16.676C165.29 16.6573 165.066 16.6387 164.824 16.62C164.6 16.5827 164.385 16.5453 164.18 16.508V24.18C164.18 24.3293 164.198 24.4973 164.236 24.684C164.273 24.852 164.329 25.0107 164.404 25.16C164.497 25.3093 164.59 25.44 164.684 25.552C164.796 25.664 164.926 25.72 165.076 25.72ZM164.18 8.47199V15.584H164.32C164.469 15.6027 164.702 15.6213 165.02 15.64H166.252C166.644 15.64 167.054 15.584 167.484 15.472C167.932 15.3413 168.342 15.136 168.716 14.856C169.108 14.5573 169.425 14.1747 169.668 13.708C169.929 13.2413 170.06 12.6533 170.06 11.944C170.06 11.2347 169.92 10.656 169.64 10.208C169.378 9.75999 169.005 9.40532 168.52 9.14399C168.053 8.88266 167.484 8.70532 166.812 8.61199C166.14 8.51866 165.402 8.47199 164.6 8.47199H164.18ZM181.529 25.72H181.389V26H192.869V22.724H192.589C192.589 22.9107 192.542 23.144 192.449 23.424C192.374 23.6853 192.244 23.9373 192.057 24.18C191.889 24.404 191.674 24.6 191.413 24.768C191.152 24.936 190.844 25.02 190.489 25.02H184.357V16.536H189.005C189.453 16.536 189.817 16.6573 190.097 16.9C190.377 17.1427 190.517 17.432 190.517 17.768H190.797V14.268H190.517C190.517 14.6227 190.368 14.9307 190.069 15.192C189.789 15.4533 189.434 15.584 189.005 15.584H184.357V8.49999H189.985C190.62 8.49999 191.086 8.66799 191.385 9.00399C191.684 9.32132 191.852 9.69466 191.889 10.124H192.169V7.51999H181.389V7.79999H181.529C181.678 7.79999 181.809 7.85599 181.921 7.96799C182.033 8.06132 182.126 8.18266 182.201 8.33199C182.294 8.48132 182.36 8.63999 182.397 8.80799C182.453 8.97599 182.481 9.12532 182.481 9.25599V24.236C182.481 24.3853 182.453 24.544 182.397 24.712C182.36 24.88 182.294 25.0387 182.201 25.188C182.126 25.3373 182.033 25.468 181.921 25.58C181.809 25.6733 181.678 25.72 181.529 25.72Z"/>
</svg>
