<svg width="384" height="85" viewBox="0 0 384 85" fill="none" xmlns="http://www.w3.org/2000/svg">
<path fill-rule="evenodd" clip-rule="evenodd" d="M42.5 0L0 41H85L42.5 0ZM83.1745 40.3828H71.1751L77.1793 34.6113L83.1745 40.3828ZM69.3056 40.3828H57.3062L63.3104 34.6113L69.3056 40.3828ZM55.4367 40.3828H43.4353L49.4345 34.6113L55.4367 40.3828ZM41.5907 40.3828H29.5404L35.5656 34.6113L41.5907 40.3828ZM27.6019 40.3828H15.6015L21.6067 34.6113L27.6019 40.3828ZM13.9129 40.3828H1.81255L7.91767 34.6133L13.9129 40.3828ZM42.449 40.1854L36.1691 34.0261L42.453 27.9574L48.783 34.0789L42.449 40.1854ZM64.1285 33.9469C64.1456 33.8278 64.2053 33.7189 64.2966 33.6402L70.0679 28.1249H70.4307L76.6167 34.0779L70.2978 40.1695L68.9339 39.018L64.2946 34.4648L64.2036 34.4159V34.2883C64.1381 34.1873 64.1115 34.066 64.1285 33.9469ZM28.6281 40.1326L22.2962 34.0281L28.6281 27.9056L34.958 34.0281L28.6281 40.1326ZM56.4618 40.1306L50.033 34.0281L56.4618 27.9076L62.7918 34.0281L56.4618 40.1306ZM14.7552 40.1306L8.42726 34.0281L14.7592 27.9056L15.7584 28.8677L17.3711 30.427C17.4796 30.5323 17.5882 30.6376 17.6966 30.7428C18.6667 31.6842 19.6345 32.6234 20.6015 33.5336C20.6796 33.5889 20.7435 33.6618 20.7881 33.7463C20.8327 33.8308 20.8567 33.9246 20.8583 34.0201C20.8582 34.1095 20.8373 34.1977 20.7975 34.2777C20.7576 34.3578 20.6998 34.4276 20.6285 34.4817L15.1998 39.7119L14.7552 40.1306ZM21.7886 33.5296L15.3617 27.3393L21.6327 21.2926L21.8325 21.4132C21.945 21.4802 22.0482 21.5616 22.1393 21.6555L27.6349 26.8996L27.7348 26.9854V27.115C27.7897 27.2132 27.8096 27.327 27.7915 27.4379C27.7734 27.5489 27.7182 27.6504 27.6349 27.7261L21.9834 33.1866L21.7886 33.5296ZM43.5595 27.144C43.5948 27.082 43.6423 27.0277 43.699 26.9844L49.1996 21.6844V20.9785L55.9323 27.423L49.6063 33.5216L49.3945 33.3292C49.1946 33.1547 49.0288 32.9962 48.8949 32.8506L43.6821 27.7889C43.6215 27.7321 43.5734 27.6633 43.5409 27.587C43.5084 27.5106 43.4921 27.4283 43.4932 27.3453C43.5016 27.2744 43.5241 27.206 43.5595 27.144ZM63.3973 33.4897L57.0653 27.3832L63.3973 21.2786L69.7272 27.3832L63.3973 33.4897ZM35.5556 33.4817L29.2316 27.3832L35.5586 21.2836L36.4259 22.0922C38.0516 23.6844 39.7002 25.2586 41.4219 26.8996C41.4987 26.9578 41.5605 27.0333 41.6024 27.12C41.6442 27.2066 41.6649 27.302 41.6627 27.3981C41.66 27.4872 41.6363 27.5744 41.5934 27.6525C41.5505 27.7307 41.4897 27.7976 41.4159 27.8478C39.9331 29.3449 38.4311 30.7747 36.977 32.1589L36.8975 32.2345L36.0691 33.0241L35.5556 33.4817ZM28.6291 26.7491L22.2972 20.6465L28.6291 14.5221L34.959 20.6465L28.6291 26.7491ZM42.452 26.7361L36.1681 20.6465L42.498 14.5251L48.782 20.6316L42.452 26.7361ZM56.3689 26.7341L50.037 20.6465L56.3669 14.54L62.6988 20.6276L56.3689 26.7341ZM49.1737 8.15433C49.2014 8.13355 49.2251 8.10788 49.2436 8.07857L49.4454 7.75654L55.8064 13.9528L49.4874 20.0284L49.0078 19.6157L43.5811 14.3715L43.4812 14.2788V14.1492C43.4279 14.0524 43.4093 13.9404 43.4284 13.8317C43.4475 13.723 43.5031 13.624 43.5861 13.551C45.4636 11.7714 47.3171 9.97283 49.1737 8.15433ZM35.5476 20.0324L29.2306 13.9428L35.6385 7.85923L41.5098 13.4892L41.6097 13.5689V13.6986C41.6719 13.8015 41.696 13.9229 41.6777 14.0416C41.6595 14.1604 41.6001 14.269 41.5098 14.3486L35.9472 19.7084L35.5476 20.0324ZM36.4118 7.25899C36.4151 7.13162 36.4665 7.01021 36.5558 6.91905L42.3042 1.32099H42.6679L48.784 7.18725L42.452 13.2938L36.5378 7.606C36.4535 7.51031 36.4085 7.38636 36.4118 7.25899ZM50.5628 51.9C48.4961 50.9667 46.1628 50.5 43.5628 50.5C40.8295 50.5 38.3961 51 36.2628 52C34.1295 53 32.3128 54.3167 30.8128 55.95C29.3461 57.5833 28.2295 59.45 27.4628 61.55C26.6961 63.6167 26.3128 65.7167 26.3128 67.85C26.3128 70.0167 26.6961 72.1 27.4628 74.1C28.2295 76.1 29.3128 77.8667 30.7128 79.4C32.1461 80.9333 33.8795 82.1667 35.9128 83.1C37.9795 84.0333 40.2961 84.5 42.8628 84.5C45.2628 84.5 47.5128 84.0833 49.6128 83.25C51.7461 82.3833 53.6128 81.2 55.2128 79.7C56.8128 78.2 58.0628 76.4 58.9628 74.3C59.8961 72.2 60.3628 69.9 60.3628 67.4C60.3628 65.1667 59.9628 63.0333 59.1628 61C58.3961 58.9333 57.2795 57.1333 55.8128 55.6C54.3795 54.0333 52.6295 52.8 50.5628 51.9ZM49.3628 81.25C47.6961 82.15 45.7461 82.65 43.5128 82.75C41.5128 82.75 39.6628 82.2833 37.9628 81.35C36.2961 80.4167 34.8461 79.2 33.6128 77.7C32.3795 76.2 31.4128 74.5333 30.7128 72.7C30.0128 70.8333 29.6628 68.9833 29.6628 67.15C29.6628 65.45 29.9628 63.7167 30.5628 61.95C31.1628 60.1833 32.0295 58.5833 33.1628 57.15C34.3295 55.7167 35.7295 54.55 37.3628 53.65C38.9961 52.7167 40.8461 52.25 42.9128 52.25C45.0461 52.25 46.9628 52.7333 48.6628 53.7C50.3961 54.6333 51.8795 55.8667 53.1128 57.4C54.3461 58.9 55.2961 60.5833 55.9628 62.45C56.6295 64.3167 56.9628 66.1667 56.9628 68C56.9628 69.6667 56.6795 71.35 56.1128 73.05C55.5795 74.75 54.7461 76.3167 53.6128 77.75C52.4795 79.15 51.0628 80.3167 49.3628 81.25ZM2.4999 83.5H2.2499V84H11.1999C12.6332 84 14.0166 83.8333 15.3499 83.5C16.7166 83.1667 17.9166 82.6333 18.9499 81.9C20.0166 81.1333 20.8666 80.1667 21.4999 79C22.1332 77.8 22.4499 76.3333 22.4499 74.6C22.4499 73.7 22.3332 72.7833 22.0999 71.85C21.8666 70.9167 21.4499 70.05 20.8499 69.25C20.2832 68.4167 19.5332 67.6833 18.5999 67.05C17.6666 66.4167 16.4999 65.9667 15.0999 65.7C15.6332 65.4333 16.1999 65.1 16.7999 64.7C17.3999 64.2667 17.9499 63.75 18.4499 63.15C18.9832 62.55 19.4166 61.8667 19.7499 61.1C20.0832 60.3333 20.2499 59.4667 20.2499 58.5C20.2499 56.2333 19.3666 54.4167 17.5999 53.05C15.8666 51.6833 13.4499 51 10.3499 51H2.1499V51.5H2.3999C2.66657 51.5 2.8999 51.6 3.0999 51.8C3.33324 51.9667 3.51657 52.2 3.6499 52.5C3.81657 52.7667 3.93324 53.05 3.9999 53.35C4.06657 53.65 4.0999 53.9167 4.0999 54.15V80.75C4.0999 81.0167 4.06657 81.3167 3.9999 81.65C3.93324 81.95 3.81657 82.2333 3.6499 82.5C3.51657 82.7667 3.3499 83 3.1499 83.2C2.9499 83.4 2.73324 83.5 2.4999 83.5ZM16.4499 68.95C17.9166 70.35 18.7832 72.3333 19.0499 74.9V75.45C19.0499 77.6167 18.2666 79.3167 16.6999 80.55C15.1666 81.75 13.0499 82.35 10.3499 82.35H7.4499V66.85H10.2499C12.9166 66.85 14.9832 67.55 16.4499 68.95ZM14.9499 54.35C16.2166 55.4833 16.8999 57.0167 16.9999 58.95V59.3C16.9999 59.9667 16.8999 60.65 16.6999 61.35C16.4999 62.05 16.1332 62.7 15.5999 63.3C15.0666 63.8667 14.3499 64.3333 13.4499 64.7C12.5832 65.0667 11.4499 65.25 10.0499 65.25H7.4499V52.65H9.9499C12.0499 52.65 13.7166 53.2167 14.9499 54.35ZM81.5999 50.5C84.1999 50.5 86.5332 50.9667 88.5999 51.9C90.6666 52.8 92.4166 54.0333 93.8499 55.6C95.3166 57.1333 96.4332 58.9333 97.1999 61C97.9999 63.0333 98.3999 65.1667 98.3999 67.4C98.3999 69.9 97.9332 72.2 96.9999 74.3C96.0999 76.4 94.8499 78.2 93.2499 79.7C91.6499 81.2 89.7832 82.3833 87.6499 83.25C85.5499 84.0833 83.2999 84.5 80.8999 84.5C78.3332 84.5 76.0166 84.0333 73.9499 83.1C71.9166 82.1667 70.1832 80.9333 68.7499 79.4C67.3499 77.8667 66.2666 76.1 65.4999 74.1C64.7332 72.1 64.3499 70.0167 64.3499 67.85C64.3499 65.7167 64.7332 63.6167 65.4999 61.55C66.2666 59.45 67.3832 57.5833 68.8499 55.95C70.3499 54.3167 72.1666 53 74.2999 52C76.4332 51 78.8666 50.5 81.5999 50.5ZM81.5499 82.75C83.7832 82.65 85.7332 82.15 87.3999 81.25C89.0999 80.3167 90.5166 79.15 91.6499 77.75C92.7832 76.3167 93.6166 74.75 94.1499 73.05C94.7166 71.35 94.9999 69.6667 94.9999 68C94.9999 66.1667 94.6666 64.3167 93.9999 62.45C93.3332 60.5833 92.3832 58.9 91.1499 57.4C89.9166 55.8667 88.4332 54.6333 86.6999 53.7C84.9999 52.7333 83.0832 52.25 80.9499 52.25C78.8832 52.25 77.0332 52.7167 75.3999 53.65C73.7666 54.55 72.3666 55.7167 71.1999 57.15C70.0666 58.5833 69.1999 60.1833 68.5999 61.95C67.9999 63.7167 67.6999 65.45 67.6999 67.15C67.6999 68.9833 68.0499 70.8333 68.7499 72.7C69.4499 74.5333 70.4166 76.2 71.6499 77.7C72.8832 79.2 74.3332 80.4167 75.9999 81.35C77.6999 82.2833 79.5499 82.75 81.5499 82.75ZM109.937 83.5H109.687C109.42 83.5 109.187 83.4 108.987 83.2C108.787 83 108.62 82.7667 108.487 82.5C108.354 82.2 108.237 81.9 108.137 81.6C108.07 81.3 108.037 81.0167 108.037 80.75V68.25L110.137 66.1L119.837 80.75C120.237 81.35 120.62 81.85 120.987 82.25C121.387 82.65 121.837 82.9833 122.337 83.25C122.837 83.5167 123.42 83.7167 124.087 83.85C124.787 83.95 125.637 84 126.637 84H127.837V83.5C127.337 83.5 126.837 83.3667 126.337 83.1C125.87 82.8 125.437 82.4667 125.037 82.1C124.67 81.7333 124.354 81.3833 124.087 81.05C123.82 80.7167 123.67 80.5167 123.637 80.45L112.587 63.7L123.087 53.25C123.587 52.75 124.087 52.3333 124.587 52C125.087 51.6667 125.57 51.5 126.037 51.5H126.287V51H120.187V51.5H120.437C120.837 51.5 121.037 51.7667 121.037 52.3C121.037 52.6 120.937 52.8667 120.737 53.1L108.037 65.7V54.1C108.037 53.8667 108.07 53.6 108.137 53.3C108.237 53 108.354 52.7167 108.487 52.45C108.654 52.1833 108.837 51.9667 109.037 51.8C109.237 51.6 109.47 51.5 109.737 51.5H109.987V51H102.837V51.5H103.087C103.32 51.5 103.537 51.6 103.737 51.8C103.937 51.9667 104.104 52.1833 104.237 52.45C104.404 52.7167 104.52 53 104.587 53.3C104.654 53.6 104.687 53.8667 104.687 54.1V80.75C104.687 81.0167 104.654 81.3167 104.587 81.65C104.52 81.95 104.404 82.2333 104.237 82.5C104.104 82.7667 103.937 83 103.737 83.2C103.537 83.4 103.304 83.5 103.037 83.5H102.787V84H109.937V83.5ZM131.307 51H138.457V51.5H138.207C137.974 51.5 137.757 51.6 137.557 51.8C137.357 51.9667 137.191 52.1833 137.057 52.45C136.924 52.6833 136.807 52.9667 136.707 53.3C136.641 53.6 136.607 53.8667 136.607 54.1V80.75C136.607 81.0167 136.641 81.3167 136.707 81.65C136.774 81.95 136.874 82.2333 137.007 82.5C137.174 82.7667 137.341 83 137.507 83.2C137.707 83.4 137.941 83.5 138.207 83.5H138.457V84H131.307V83.5H131.557C131.824 83.5 132.057 83.4167 132.257 83.25C132.457 83.05 132.624 82.8167 132.757 82.55C132.924 82.25 133.041 81.95 133.107 81.65C133.174 81.3167 133.207 81.0167 133.207 80.75V54.1C133.207 53.8667 133.174 53.6 133.107 53.3C133.041 53 132.924 52.7167 132.757 52.45C132.624 52.1833 132.457 51.9667 132.257 51.8C132.057 51.6 131.824 51.5 131.557 51.5H131.307V51ZM148.766 83.5H148.516C148.249 83.5 148.016 83.4 147.816 83.2C147.616 83 147.432 82.7667 147.266 82.5C147.132 82.2333 147.032 81.95 146.966 81.65C146.899 81.3167 146.866 81.0167 146.866 80.75V55.3L164.966 84H168.066V54.1C168.066 53.8667 168.099 53.6 168.166 53.3C168.232 53 168.332 52.7167 168.466 52.45C168.632 52.1833 168.816 51.9667 169.016 51.8C169.216 51.6 169.449 51.5 169.716 51.5H169.966V51H164.366V51.5H164.616C164.882 51.5 165.116 51.6 165.316 51.8C165.516 51.9667 165.682 52.1833 165.816 52.45C165.982 52.7167 166.099 53 166.166 53.3C166.266 53.6 166.316 53.8667 166.316 54.1V79.6L148.166 51H143.116V51.5H143.366C143.699 51.5 143.982 51.6 144.216 51.8C144.449 51.9667 144.632 52.1833 144.766 52.45C144.899 52.7167 144.982 53 145.016 53.3C145.082 53.6 145.116 53.8667 145.116 54.1V80.75C145.116 81.0167 145.066 81.3167 144.966 81.65C144.899 81.95 144.799 82.2333 144.666 82.5C144.532 82.7667 144.349 83 144.116 83.2C143.916 83.4 143.699 83.5 143.466 83.5H143.216V84H148.766V83.5ZM196.162 66.6H203.312V67.1H203.062C202.795 67.1 202.562 67.2 202.362 67.4C202.162 67.5667 201.995 67.7833 201.862 68.05C201.729 68.3167 201.612 68.6 201.512 68.9C201.445 69.2 201.412 69.4667 201.412 69.7V83.1C200.812 83.3333 200.129 83.5333 199.362 83.7C198.595 83.8667 197.795 84 196.962 84.1C196.129 84.2333 195.279 84.3333 194.412 84.4C193.545 84.4667 192.745 84.5 192.012 84.5C189.012 84.5 186.395 84 184.162 83C181.929 82 180.079 80.7 178.612 79.1C177.145 77.4667 176.045 75.6333 175.312 73.6C174.612 71.5667 174.262 69.5167 174.262 67.45C174.262 65.3833 174.612 63.3333 175.312 61.3C176.045 59.2667 177.145 57.45 178.612 55.85C180.112 54.25 181.979 52.9667 184.212 52C186.479 51 189.162 50.5 192.262 50.5C193.429 50.5 194.512 50.6 195.512 50.8C196.512 51 197.395 51.1833 198.162 51.35C198.595 51.45 198.962 51.55 199.262 51.65C199.595 51.7167 199.879 51.75 200.112 51.75H200.562V57.05H200.062C199.862 56.0167 199.462 55.1833 198.862 54.55C198.295 53.9167 197.629 53.4333 196.862 53.1C196.095 52.7667 195.279 52.55 194.412 52.45C193.579 52.3167 192.795 52.25 192.062 52.25C189.562 52.25 187.395 52.7 185.562 53.6C183.729 54.4667 182.229 55.6 181.062 57C179.895 58.4 179.029 59.9833 178.462 61.75C177.895 63.4833 177.612 65.2167 177.612 66.95C177.612 68.8833 177.979 70.8 178.712 72.7C179.445 74.5667 180.479 76.25 181.812 77.75C183.145 79.2167 184.745 80.4167 186.612 81.35C188.512 82.25 190.612 82.7 192.912 82.7C193.545 82.7 194.329 82.6333 195.262 82.5C196.195 82.3333 197.129 81.9833 198.062 81.45V69.7C198.062 69.4667 198.029 69.2 197.962 68.9C197.895 68.6 197.779 68.3167 197.612 68.05C197.479 67.7833 197.312 67.5667 197.112 67.4C196.912 67.2 196.679 67.1 196.412 67.1H196.162V66.6ZM233.412 83.5H233.162C232.895 83.5 232.662 83.4 232.462 83.2C232.295 83 232.128 82.7667 231.962 82.5C231.828 82.2333 231.728 81.95 231.662 81.65C231.595 81.3167 231.562 81.0167 231.562 80.75V52.85H237.462C237.995 52.85 238.462 52.9667 238.862 53.2C239.262 53.4333 239.595 53.7333 239.862 54.1C240.128 54.4333 240.328 54.8167 240.462 55.25C240.595 55.65 240.662 56.05 240.662 56.45H241.162V51H218.712V56.45H219.212C219.212 56.05 219.278 55.65 219.412 55.25C219.545 54.8167 219.745 54.4333 220.012 54.1C220.278 53.7333 220.612 53.4333 221.012 53.2C221.412 52.9667 221.878 52.85 222.412 52.85H228.212V80.75C228.212 81.0167 228.178 81.3167 228.112 81.65C228.045 81.95 227.928 82.2333 227.762 82.5C227.628 82.7667 227.462 83 227.262 83.2C227.062 83.4 226.828 83.5 226.562 83.5H226.312V84H233.412V83.5ZM244.1 51H251.25V51.5H251C250.767 51.5 250.55 51.6 250.35 51.8C250.15 51.9667 249.984 52.1833 249.85 52.45C249.717 52.6833 249.6 52.9667 249.5 53.3C249.434 53.6 249.4 53.8667 249.4 54.1V80.75C249.4 81.0167 249.434 81.3167 249.5 81.65C249.567 81.95 249.667 82.2333 249.8 82.5C249.967 82.7667 250.134 83 250.3 83.2C250.5 83.4 250.734 83.5 251 83.5H251.25V84H244.1V83.5H244.35C244.617 83.5 244.85 83.4167 245.05 83.25C245.25 83.05 245.417 82.8167 245.55 82.55C245.717 82.25 245.834 81.95 245.9 81.65C245.967 81.3167 246 81.0167 246 80.75V54.1C246 53.8667 245.967 53.6 245.9 53.3C245.834 53 245.717 52.7167 245.55 52.45C245.417 52.1833 245.25 51.9667 245.05 51.8C244.85 51.6 244.617 51.5 244.35 51.5H244.1V51ZM267.208 53.65C269.042 52.75 271.192 52.3 273.659 52.3C274.425 52.3 275.209 52.3833 276.009 52.55C276.842 52.6833 277.608 52.9333 278.309 53.3C279.042 53.6667 279.675 54.2 280.208 54.9C280.742 55.5667 281.108 56.4167 281.309 57.45H281.809V51.9C281.409 51.9 280.992 51.8667 280.559 51.8C280.159 51.7 279.708 51.5667 279.208 51.4C278.508 51.2 277.708 51 276.809 50.8C275.942 50.6 274.958 50.5 273.858 50.5C270.792 50.5 268.125 51 265.858 52C263.592 53 261.708 54.3167 260.208 55.95C258.708 57.55 257.592 59.3667 256.858 61.4C256.125 63.4333 255.758 65.4833 255.758 67.55C255.758 69.6167 256.125 71.6667 256.858 73.7C257.592 75.7 258.692 77.5 260.159 79.1C261.625 80.7 263.458 82 265.659 83C267.859 84 270.409 84.5 273.309 84.5C274.475 84.5 275.575 84.4 276.608 84.2C277.675 84 278.642 83.7833 279.509 83.55L281.309 83.1C281.875 82.9667 282.409 82.9 282.909 82.9V77.35H282.409C282.042 78.4833 281.509 79.4 280.809 80.1C280.142 80.8 279.408 81.35 278.608 81.75C277.809 82.1167 276.992 82.3667 276.159 82.5C275.359 82.6333 274.659 82.7 274.059 82.7C271.958 82.7 270.008 82.2667 268.208 81.4C266.409 80.5 264.825 79.3333 263.458 77.9C262.125 76.4333 261.075 74.7667 260.309 72.9C259.542 71 259.159 69.0667 259.159 67.1C259.159 65.3667 259.442 63.6167 260.009 61.85C260.609 60.0833 261.508 58.5 262.708 57.1C263.909 55.6667 265.409 54.5167 267.208 53.65ZM294.111 83.5H294.361V84H287.211V83.5H287.461C287.728 83.5 287.961 83.4 288.161 83.2C288.361 83 288.528 82.7667 288.661 82.5C288.828 82.2333 288.944 81.95 289.011 81.65C289.078 81.3167 289.111 81.0167 289.111 80.75V54.1C289.111 53.8667 289.078 53.6 289.011 53.3C288.944 53 288.828 52.7167 288.661 52.45C288.528 52.1833 288.361 51.9667 288.161 51.8C287.961 51.6 287.744 51.5 287.511 51.5H287.261V51H294.411V51.5H294.161C293.894 51.5 293.661 51.6 293.461 51.8C293.261 51.9667 293.078 52.1833 292.911 52.45C292.778 52.7167 292.661 53 292.561 53.3C292.494 53.6 292.461 53.8667 292.461 54.1V65.7L305.161 53.1C305.361 52.8667 305.461 52.6 305.461 52.3C305.461 51.7667 305.261 51.5 304.861 51.5H304.611V51H310.711V51.5H310.461C309.994 51.5 309.511 51.6667 309.011 52C308.511 52.3333 308.011 52.75 307.511 53.25L297.011 63.7L308.061 80.45C308.094 80.5167 308.244 80.7167 308.511 81.05C308.777 81.3833 309.094 81.7333 309.461 82.1C309.861 82.4667 310.294 82.8 310.761 83.1C311.261 83.3667 311.761 83.5 312.261 83.5V84H311.061C310.061 84 309.211 83.95 308.511 83.85C307.844 83.7167 307.261 83.5167 306.761 83.25C306.261 82.9833 305.811 82.65 305.411 82.25C305.044 81.85 304.661 81.35 304.261 80.75L294.561 66.1L292.461 68.25V80.75C292.461 81.0167 292.494 81.3 292.561 81.6C292.661 81.9 292.778 82.2 292.911 82.5C293.044 82.7667 293.211 83 293.411 83.2C293.611 83.4 293.844 83.5 294.111 83.5ZM315.781 83.5H315.531V84H336.031V78.15H335.531C335.531 78.4833 335.448 78.9 335.281 79.4C335.148 79.8667 334.914 80.3167 334.581 80.75C334.281 81.15 333.898 81.5 333.431 81.8C332.964 82.1 332.414 82.25 331.781 82.25H320.831V67.1H329.131C329.931 67.1 330.581 67.3167 331.081 67.75C331.581 68.1833 331.831 68.7 331.831 69.3H332.331V63.05H331.831C331.831 63.6833 331.564 64.2333 331.031 64.7C330.531 65.1667 329.898 65.4 329.131 65.4H320.831V52.75H330.881C332.014 52.75 332.848 53.05 333.381 53.65C333.914 54.2167 334.214 54.8833 334.281 55.65H334.781V51H315.531V51.5H315.781C316.048 51.5 316.281 51.6 316.481 51.8C316.681 51.9667 316.848 52.1833 316.981 52.45C317.148 52.7167 317.264 53 317.331 53.3C317.431 53.6 317.481 53.8667 317.481 54.1V80.85C317.481 81.1167 317.431 81.4 317.331 81.7C317.264 82 317.148 82.2833 316.981 82.55C316.848 82.8167 316.681 83.05 316.481 83.25C316.281 83.4167 316.048 83.5 315.781 83.5ZM352.449 83.5H352.699V84H345.599V83.5H345.849C346.115 83.5 346.349 83.4 346.549 83.2C346.749 83 346.915 82.7667 347.049 82.5C347.215 82.2333 347.332 81.95 347.399 81.65C347.465 81.3167 347.499 81.0167 347.499 80.75V52.85H341.699C341.165 52.85 340.699 52.9667 340.299 53.2C339.899 53.4333 339.565 53.7333 339.299 54.1C339.032 54.4333 338.832 54.8167 338.699 55.25C338.565 55.65 338.499 56.05 338.499 56.45H337.999V51H360.449V56.45H359.949C359.949 56.05 359.882 55.65 359.749 55.25C359.615 54.8167 359.415 54.4333 359.149 54.1C358.882 53.7333 358.549 53.4333 358.149 53.2C357.749 52.9667 357.282 52.85 356.749 52.85H350.849V80.75C350.849 81.0167 350.882 81.3167 350.949 81.65C351.015 81.95 351.115 82.2333 351.249 82.5C351.415 82.7667 351.582 83 351.749 83.2C351.949 83.4 352.182 83.5 352.449 83.5ZM382.437 79.45C383.104 78.25 383.437 76.8167 383.437 75.15C383.437 73.6167 383.137 72.3167 382.537 71.25C381.971 70.1833 381.221 69.2833 380.287 68.55C379.387 67.8167 378.354 67.2 377.187 66.7C376.021 66.2 374.871 65.7333 373.737 65.3C372.737 64.9333 371.771 64.55 370.837 64.15C369.937 63.75 369.137 63.3 368.437 62.8C367.737 62.3 367.171 61.7167 366.737 61.05C366.337 60.3833 366.137 59.5833 366.137 58.65C366.137 58.0833 366.221 57.4333 366.387 56.7C366.587 55.9333 366.937 55.2333 367.437 54.6C367.937 53.9333 368.604 53.3833 369.437 52.95C370.304 52.4833 371.404 52.25 372.737 52.25C375.037 52.25 376.837 52.5667 378.137 53.2C379.437 53.8 380.121 54.9667 380.187 56.7H380.687V51.55C380.187 51.55 379.671 51.5167 379.137 51.45C378.604 51.35 378.054 51.2333 377.487 51.1C376.787 50.9333 376.054 50.8 375.287 50.7C374.521 50.5667 373.704 50.5 372.837 50.5C371.571 50.5 370.321 50.6833 369.087 51.05C367.887 51.3833 366.804 51.9 365.837 52.6C364.904 53.3 364.154 54.2 363.587 55.3C363.021 56.3667 362.737 57.6333 362.737 59.1C362.737 60.5 363.004 61.6833 363.537 62.65C364.071 63.5833 364.771 64.4 365.637 65.1C366.504 65.7667 367.487 66.3333 368.587 66.8C369.687 67.2667 370.804 67.7167 371.937 68.15C372.937 68.55 373.921 68.95 374.887 69.35C375.854 69.75 376.704 70.2333 377.437 70.8C378.204 71.3667 378.821 72.0333 379.287 72.8C379.754 73.5333 379.987 74.45 379.987 75.55C379.987 76.4167 379.821 77.2667 379.487 78.1C379.187 78.9333 378.704 79.7 378.037 80.4C377.371 81.0667 376.521 81.6167 375.487 82.05C374.454 82.45 373.221 82.65 371.787 82.65C371.387 82.65 370.754 82.6 369.887 82.5C369.021 82.3667 368.154 82.1 367.287 81.7C366.421 81.3 365.654 80.7333 364.987 80C364.354 79.2333 364.037 78.2167 364.037 76.95H363.537V82.65C363.971 82.65 364.404 82.7167 364.837 82.85C365.271 82.95 365.754 83.0833 366.287 83.25C367.087 83.4833 367.971 83.7333 368.937 84C369.904 84.2667 371.054 84.4 372.387 84.4C373.687 84.4 374.987 84.2333 376.287 83.9C377.621 83.5667 378.804 83.0333 379.837 82.3C380.904 81.5667 381.771 80.6167 382.437 79.45Z" fill="#9D8665"/>
</svg>
