<svg width="68" height="48" viewBox="0 0 68 48" fill="none" xmlns="http://www.w3.org/2000/svg">
<g clip-path="url(#clip0)">
<path d="M66.599 7.67627C65.8151 4.76322 63.5184 2.46703 60.6058 1.68261C55.2845 0.226349 33.9993 0.226349 33.9993 0.226349C33.9993 0.226349 12.7147 0.226349 7.39337 1.6271C4.53688 2.411 2.18413 4.76374 1.40023 7.67627C0 12.997 0 24.0318 0 24.0318C0 24.0318 0 35.1222 1.40023 40.3874C2.18465 43.3 4.48085 45.5967 7.39389 46.3811C12.7707 47.8373 33.9999 47.8373 33.9999 47.8373C33.9999 47.8373 55.2845 47.8373 60.6058 46.4366C63.5189 45.6527 65.8151 43.356 66.5995 40.4435C67.9997 35.1222 67.9997 24.0879 67.9997 24.0879C67.9997 24.0879 68.0557 12.997 66.599 7.67627Z" fill="#212121" fill-opacity="0.8"/>
<path d="M27.2223 34.2261L44.9221 24.0317L27.2223 13.8373V34.2261Z" fill="white"/>
</g>
<defs>
<clipPath id="clip0">
<rect width="68" height="48" fill="white" transform="translate(0 -0.000366211)"/>
</clipPath>
</defs>
</svg>
